<svg xmlns="http://www.w3.org/2000/svg" viewBox="0 0 331.38 95.26"><defs><style>.cls-1{isolation:isolate;}.cls-2{fill:#fe5982;}.cls-3{fill:#dbc2ff;}</style></defs><title>Layer 2 (2)ldpi</title><g id="Layer_2" data-name="Layer 2"><g id="Layer_2-2" data-name="Layer 2"><g class="cls-1"><path d="M93.85,35.91h7l12.22,33.57h-8l-2.55-7.54H92.15L89.6,69.48H81.53Zm7.44,20.72-3.93-11.9-4,11.9Z"/><path d="M116.37,69.48V35.91h15.09a9.65,9.65,0,0,1,4.35,1,10.8,10.8,0,0,1,3.51,2.55A16.55,16.55,0,0,1,141.66,43a11.56,11.56,0,0,1,.85,4.14,9.15,9.15,0,0,1-.43,3A12.42,12.42,0,0,1,141,52.91a12.24,12.24,0,0,1-1.7,2.34A9.56,9.56,0,0,1,137,57l7.33,12.43H135.6l-6.48-10.84H124V69.38h-7.65ZM124.13,52h7.12a2.78,2.78,0,0,0,2.33-1.27,5.47,5.47,0,0,0,1-3.29,4.82,4.82,0,0,0-1.17-3.3,3.27,3.27,0,0,0-2.44-1.27H124V52Z"/><path d="M148,69.48V35.91h7.75V50.36l12.33-14.45h8.71l-12.54,15,13.39,18.59h-8.82L159.4,56l-3.51,3.61v9.88Z"/><path d="M189.25,35.91h7l12.21,33.57h-8L198,61.94H187.55L185,69.48h-8Zm7.43,20.72-3.93-11.9-4,11.9Z"/><path d="M213.78,35.91l7.86,23.8,7.76-23.8h8.18L224.83,69.48h-6.48L205.5,35.91Z"/><path d="M240.77,69.48V35.91h7.75V69.48Z"/><path d="M255,69.48V35.91h12.53a19.58,19.58,0,0,1,7.33,1.28,14.22,14.22,0,0,1,5.21,3.61,15.88,15.88,0,0,1,3.19,5.31,19,19,0,0,1,1.06,6.48,20.13,20.13,0,0,1-1.17,6.91,14.62,14.62,0,0,1-3.4,5.31,15.24,15.24,0,0,1-5.31,3.4,18.18,18.18,0,0,1-6.91,1.17H255ZM276.35,52.7a11.81,11.81,0,0,0-.64-4,11.05,11.05,0,0,0-1.7-3.18,7.38,7.38,0,0,0-2.76-2,9.93,9.93,0,0,0-3.72-.75h-4.78v20h4.78a9.12,9.12,0,0,0,3.83-.74,7.75,7.75,0,0,0,2.76-2.12,9.15,9.15,0,0,0,1.7-3.19A14.59,14.59,0,0,0,276.35,52.7Z"/><path d="M288.78,69.48V35.91h7.75V69.48Z"/><path d="M312.15,35.91h7l12.22,33.57h-8l-2.55-7.54H310.45l-2.55,7.54h-8Zm7.44,20.72-3.93-11.9-4,11.9Z"/></g><path id="path88-2" class="cls-2" d="M61.05,46c-.15,1.32-.3,2.59-.51,3.7C59.17,58.31,56.08,62,52.93,64.8c-.71-5.17-3-11.36-8.17-18.37a75.32,75.32,0,0,0-5.17-6.19v-.05a6.79,6.79,0,0,1-.71-.71c-1.32-1.37-2.69-2.79-4.22-4.21-1.93-1.78-3.91-3.55-5.78-5.43a45.27,45.27,0,0,1-6.19-7.46C19,16.65,17.26,9.64,20.05,0h0c-.05.05-9.85,13.19-.82,32.33a.84.84,0,0,1,.11.2s-.11-.1-.11-.15c-3-3.81-7.86-8.12-11.57-9.7,4.22,9.34,0,17.87-2.89,22.69A32.56,32.56,0,0,0,0,62.42a31,31,0,0,0,.35,4.87c.16,1.17.41,2.29.67,3.4a34.41,34.41,0,0,0,2.13,5.79A32.26,32.26,0,0,0,5,79.93c.15.2.25.41.4.61A33,33,0,0,0,21.82,93.38a33.85,33.85,0,0,0,7.92,1.72,28.14,28.14,0,0,0,3,.16A34.94,34.94,0,0,0,38,94.85,30.37,30.37,0,0,1,26.39,86a25.31,25.31,0,0,0,30.7-1.42.28.28,0,0,1,.1-.16,24,24,0,0,1-34.86-27.8l-.3-.21-1.42-.76a.7.7,0,0,1,0-1.21l3.5-2.29,6.7-4.31a.69.69,0,0,1,1.06.66l-.61,12.08a.71.71,0,0,1-1.06.6l-1.73-1a18.8,18.8,0,0,0,36,10.76,27.18,27.18,0,0,0,1.43-7.21A27.84,27.84,0,0,0,61.05,46Z"/><g id="g918"><path id="path86-9" class="cls-3" d="M31,25.48c1.32,1.72,2.79,3.45,4.31,5.17,2.34,2.59,4.87,5.13,7.26,7.66.71.72,1.37,1.43,2,2.14a0,0,0,0,0,0,0,67.38,67.38,0,0,1,5.94,7.2,18.58,18.58,0,0,1,3.5,8.53A43.73,43.73,0,0,0,54.51,49a44.87,44.87,0,0,0-.31-5c-.05-.66-.15-1.27-.25-1.93A37.36,37.36,0,0,0,53,37.55v0a33.15,33.15,0,0,0-3.75-8.88,24.2,24.2,0,0,0-2.94-4c-11-12.33-19-15.32-19-22.48,0,0-3.85,10.51,2,20.71A30.86,30.86,0,0,0,31,25.48Z"/></g></g></g></svg>