<?xml version="1.0" encoding="UTF-8" standalone="no"?>
<svg
   xmlns:dc="http://purl.org/dc/elements/1.1/"
   xmlns:cc="http://creativecommons.org/ns#"
   xmlns:rdf="http://www.w3.org/1999/02/22-rdf-syntax-ns#"
   xmlns:svg="http://www.w3.org/2000/svg"
   xmlns="http://www.w3.org/2000/svg"
   xmlns:sodipodi="http://sodipodi.sourceforge.net/DTD/sodipodi-0.dtd"
   xmlns:inkscape="http://www.inkscape.org/namespaces/inkscape"
   viewBox="0 0 128 128"
   version="1.1"
   id="svg33"
   sodipodi:docname="logo-horizontal.svg"
   width="128"
   height="128"
   inkscape:export-xdpi="400"
   inkscape:export-ydpi="400"
   inkscape:version="1.0.1 (0767f8302a, 2020-10-17)">
  <metadata
     id="metadata37">
    <rdf:RDF>
      <cc:Work
         rdf:about="">
        <dc:format>image/svg+xml</dc:format>
        <dc:type
           rdf:resource="http://purl.org/dc/dcmitype/StillImage" />
        <dc:title>Layer 2 (2)ldpi</dc:title>
      </cc:Work>
    </rdf:RDF>
  </metadata>
  <sodipodi:namedview
     pagecolor="#ffffff"
     bordercolor="#666666"
     borderopacity="1"
     objecttolerance="10"
     gridtolerance="10"
     guidetolerance="10"
     inkscape:pageopacity="0"
     inkscape:pageshadow="2"
     inkscape:window-width="1920"
     inkscape:window-height="1043"
     id="namedview35"
     showgrid="false"
     inkscape:zoom="2.6672807"
     inkscape:cx="173.81592"
     inkscape:cy="49.350207"
     inkscape:window-x="0"
     inkscape:window-y="0"
     inkscape:window-maximized="1"
     inkscape:current-layer="Layer_2-2" />
  <defs
     id="defs4">
    <style
       id="style2">.cls-1{isolation:isolate;}.cls-2{fill:#fe5982;}.cls-3{fill:#dbc2ff;}</style>
  </defs>
  <title
     id="title6">Layer 2 (2)ldpi</title>
  <g
     id="Layer_2"
     data-name="Layer 2">
    <g
       id="Layer_2-2"
       data-name="Layer 2">
      <g
         id="g865"
         transform="matrix(1.2762138,0,0,1.2762138,21.906462,3.2139366)">
        <path
           id="path88-2"
           class="cls-2"
           d="m 61.05,46 c -0.15,1.32 -0.3,2.59 -0.51,3.7 -1.37,8.61 -4.46,12.3 -7.61,15.1 -0.71,-5.17 -3,-11.36 -8.17,-18.37 A 75.32,75.32 0 0 0 39.59,40.24 V 40.19 A 6.79,6.79 0 0 1 38.88,39.48 C 37.56,38.11 36.19,36.69 34.66,35.27 32.73,33.49 30.75,31.72 28.88,29.84 A 45.27,45.27 0 0 1 22.69,22.38 C 19,16.65 17.26,9.64 20.05,0 V 0 C 20,0.05 10.2,13.19 19.23,32.33 a 0.84,0.84 0 0 1 0.11,0.2 c 0,0 -0.11,-0.1 -0.11,-0.15 -3,-3.81 -7.86,-8.12 -11.57,-9.7 4.22,9.34 0,17.87 -2.89,22.69 A 32.56,32.56 0 0 0 0,62.42 31,31 0 0 0 0.35,67.29 c 0.16,1.17 0.41,2.29 0.67,3.4 A 34.41,34.41 0 0 0 3.15,76.48 32.26,32.26 0 0 0 5,79.93 c 0.15,0.2 0.25,0.41 0.4,0.61 a 33,33 0 0 0 16.42,12.84 33.85,33.85 0 0 0 7.92,1.72 28.14,28.14 0 0 0 3,0.16 A 34.94,34.94 0 0 0 38,94.85 30.37,30.37 0 0 1 26.39,86 a 25.31,25.31 0 0 0 30.7,-1.42 0.28,0.28 0 0 1 0.1,-0.16 24,24 0 0 1 -34.86,-27.8 l -0.3,-0.21 -1.42,-0.76 a 0.7,0.7 0 0 1 0,-1.21 l 3.5,-2.29 6.7,-4.31 a 0.69,0.69 0 0 1 1.06,0.66 l -0.61,12.08 a 0.71,0.71 0 0 1 -1.06,0.6 l -1.73,-1 a 18.8,18.8 0 0 0 36,10.76 A 27.18,27.18 0 0 0 65.9,63.73 27.84,27.84 0 0 0 61.05,46 Z" />
        <g
           id="g918">
          <path
             id="path86-9"
             class="cls-3"
             d="m 31,25.48 c 1.32,1.72 2.79,3.45 4.31,5.17 2.34,2.59 4.87,5.13 7.26,7.66 0.71,0.72 1.37,1.43 2,2.14 a 67.38,67.38 0 0 1 5.94,7.2 18.58,18.58 0 0 1 3.5,8.53 A 43.73,43.73 0 0 0 54.51,49 44.87,44.87 0 0 0 54.2,44 C 54.15,43.34 54.05,42.73 53.95,42.07 A 37.36,37.36 0 0 0 53,37.55 v 0 a 33.15,33.15 0 0 0 -3.75,-8.88 24.2,24.2 0 0 0 -2.94,-4 c -11,-12.33 -19,-15.32 -19,-22.48 0,0 -3.85,10.51 2,20.71 A 30.86,30.86 0 0 0 31,25.48 Z" />
        </g>
      </g>
    </g>
  </g>
</svg>
