<?xml version="1.0" standalone="no"?>
<!DOCTYPE svg PUBLIC "-//W3C//DTD SVG 20010904//EN"
 "http://www.w3.org/TR/2001/REC-SVG-20010904/DTD/svg10.dtd">
<svg version="1.0" xmlns="http://www.w3.org/2000/svg"
 width="700.000000pt" height="700.000000pt" viewBox="0 0 700.000000 700.000000"
 preserveAspectRatio="xMidYMid meet">
<metadata>
Created by potrace 1.11, written by Peter Selinger 2001-2013
</metadata>
<g transform="translate(0.000000,700.000000) scale(0.100000,-0.100000)"
fill="#000000" stroke="none">
<path d="M2543 6738 c-140 -244 -228 -529 -260 -838 -14 -135 -7 -399 13 -540
31 -204 119 -519 184 -655 5 -11 21 -47 35 -79 l25 -59 -42 49 c-59 68 -147
163 -183 197 -156 149 -247 225 -380 314 -49 33 -114 73 -144 88 -47 23 -53
24 -48 8 3 -10 20 -56 37 -103 111 -311 99 -665 -35 -1025 -42 -113 -141 -316
-208 -426 -142 -234 -261 -543 -302 -784 -27 -159 -36 -273 -36 -435 1 -109 2
-137 17 -270 15 -146 63 -343 121 -500 252 -680 796 -1195 1483 -1403 63 -19
129 -37 145 -40 17 -3 52 -10 79 -16 27 -7 68 -14 91 -17 24 -3 53 -7 66 -9
114 -22 416 -22 574 0 11 1 28 3 38 4 31 2 18 17 -36 39 -79 33 -259 143 -366
224 -93 70 -368 335 -358 344 3 3 36 -15 73 -39 128 -82 393 -191 514 -212 19
-3 53 -10 75 -15 22 -5 63 -12 90 -15 28 -4 61 -8 75 -11 33 -6 259 -5 335 1
257 21 573 132 792 278 101 68 172 120 173 128 0 4 -28 -8 -63 -27 -110 -58
-325 -133 -431 -150 -21 -3 -48 -8 -60 -10 -105 -21 -389 -24 -506 -5 -462 76
-847 309 -1116 676 -264 359 -375 853 -289 1285 14 69 28 139 31 156 5 30 2
33 -60 68 -35 20 -67 45 -71 55 -12 38 -28 25 323 252 64 42 169 109 232 150
167 109 185 119 207 119 41 0 45 -20 38 -182 -4 -84 -9 -184 -10 -223 -2 -38
-6 -126 -10 -195 -9 -155 -13 -247 -14 -282 -1 -31 -25 -58 -51 -58 -11 0 -45
16 -77 35 -68 41 -77 36 -88 -48 -4 -29 -9 -61 -12 -72 -8 -40 -10 -241 -2
-305 13 -109 17 -132 44 -225 64 -221 171 -401 335 -565 205 -205 462 -333
755 -376 96 -14 295 -9 397 10 57 10 203 49 213 55 6 4 33 16 60 26 137 49
304 162 435 294 171 173 277 364 349 632 19 72 25 100 35 167 3 15 7 45 11 67
23 152 21 389 -6 560 -19 124 -74 336 -99 385 -5 8 -19 42 -31 74 -24 63 -104
217 -156 300 l-31 50 -6 -35 c-3 -19 -11 -72 -17 -119 -26 -208 -93 -480 -149
-605 -5 -11 -18 -42 -30 -68 -59 -136 -176 -301 -295 -416 -62 -61 -75 -70
-76 -52 -1 11 -2 24 -3 29 -1 4 -6 27 -10 52 -4 25 -15 72 -23 105 -8 33 -16
67 -18 75 -13 58 -74 229 -122 340 -116 268 -334 611 -558 875 -50 59 -63 74
-165 190 -75 85 -375 382 -505 500 -530 479 -797 841 -916 1240 -31 103 -32
111 -54 255 -24 160 -5 513 34 648 5 18 10 35 10 37 -1 14 13 73 23 97 22 59
0 46 -39 -24z"/>
<path d="M3097 6643 c-3 -5 -10 -28 -17 -53 -12 -44 -15 -56 -25 -102 -5 -22
-18 -124 -31 -228 -14 -120 -2 -392 20 -469 3 -9 8 -34 11 -57 15 -108 80
-294 152 -438 87 -174 305 -456 553 -717 8 -8 94 -98 190 -199 243 -254 234
-244 345 -365 55 -59 105 -113 110 -119 95 -102 294 -357 369 -473 74 -114
149 -293 172 -408 5 -22 9 -43 10 -47 1 -5 2 -16 3 -25 1 -22 15 -7 17 20 2
12 5 49 8 82 15 157 17 200 17 340 0 157 -9 306 -26 415 -2 14 -6 45 -9 70 -3
25 -8 56 -11 70 -3 14 -9 48 -15 75 -59 305 -147 535 -320 835 -108 186 -446
546 -880 935 -371 332 -499 469 -568 610 -36 72 -61 155 -64 213 -2 43 -3 48
-11 35z"/>
</g>
</svg>
