<svg width="147" height="137" viewBox="0 0 147 137" fill="none" xmlns="http://www.w3.org/2000/svg">
<path d="M108.891 85.0156C106.721 85.0125 104.572 85.4376 102.567 86.2665C100.562 87.0954 98.7397 88.3118 97.2055 89.846C95.6712 91.3803 94.4548 93.2022 93.6259 95.2073C92.797 97.2125 92.372 99.3615 92.3751 101.531C92.3658 104.432 93.1314 107.283 94.5929 109.789C95.1496 110.733 95.7891 111.625 96.504 112.455C98.0538 114.213 99.9599 115.62 102.096 116.584C104.231 117.548 106.548 118.047 108.891 118.047C111.234 118.047 113.55 117.548 115.686 116.584C117.822 115.62 119.728 114.213 121.277 112.455C121.987 111.634 122.619 110.75 123.165 109.813C123.354 109.482 123.542 109.152 123.708 108.822C124.021 108.178 124.297 107.516 124.533 106.84C125.123 105.132 125.418 103.337 125.406 101.531C125.407 99.3623 124.98 97.2145 124.15 95.2106C123.32 93.2066 122.104 91.3858 120.57 89.8521C119.036 88.3184 117.215 87.1019 115.211 86.2721C113.207 85.4422 111.06 85.0153 108.891 85.0156Z" fill="#EF69D2"/>
<path d="M108.891 122.766C105.877 122.769 102.897 122.129 100.15 120.888C97.4036 119.647 94.9538 117.834 92.9649 115.569C92.7761 115.334 92.5638 115.121 92.375 114.885V134.562C92.3733 134.937 92.4626 135.307 92.6352 135.64C92.8078 135.973 93.0586 136.259 93.366 136.474C93.668 136.694 94.0183 136.838 94.3877 136.896C94.757 136.953 95.1347 136.922 95.4894 136.804L108.891 132.321L122.292 136.804C122.537 136.878 122.791 136.917 123.047 136.922C123.54 136.929 124.022 136.771 124.415 136.474C124.723 136.259 124.973 135.973 125.146 135.64C125.319 135.307 125.408 134.937 125.406 134.562V114.885C125.218 115.121 125.005 115.334 124.816 115.569C122.827 117.834 120.378 119.647 117.631 120.888C114.885 122.129 111.905 122.769 108.891 122.766Z" fill="#EF69D2"/>
<path d="M93.2244 87.2098C93.5051 86.886 93.8045 86.5788 94.1209 86.2897C94.4654 85.9409 94.8276 85.6101 95.2063 85.2987C95.279 85.2288 95.3579 85.1656 95.4422 85.11C95.7013 84.8775 95.9773 84.6645 96.268 84.473C96.4862 84.2946 96.7146 84.1292 96.9522 83.9775C97.187 83.8066 97.4311 83.6491 97.6836 83.5056C97.8381 83.3937 98.0042 83.2988 98.1791 83.2225C98.5117 83.0032 98.8585 82.8062 99.2172 82.6327C99.6183 82.4203 99.9958 82.2316 100.397 82.0664C100.757 81.9005 101.127 81.7586 101.506 81.6417C101.757 81.5267 102.018 81.432 102.284 81.3586C102.337 81.335 102.393 81.3191 102.45 81.3114C102.945 81.1463 103.44 81.0047 103.936 80.8867C104.408 80.7687 104.88 80.6744 105.328 80.6036C105.647 80.535 105.97 80.4877 106.295 80.462C106.602 80.4148 106.909 80.3912 107.215 80.3677C107.782 80.3205 108.324 80.2969 108.891 80.2969C109.433 80.2969 109.976 80.3205 110.495 80.3677C111.033 80.3956 111.569 80.4586 112.099 80.5564C112.312 80.58 112.548 80.6036 112.784 80.6508C112.854 80.6744 112.925 80.6744 113.02 80.698C113.426 80.7699 113.827 80.8644 114.223 80.9811C114.281 80.9825 114.338 80.9987 114.388 81.0283C114.931 81.1698 115.473 81.335 115.992 81.5238C116.828 81.834 117.648 82.1884 118.446 82.5855C118.948 82.8114 119.429 83.0797 119.885 83.3877C120.192 83.5528 120.475 83.7416 120.758 83.9303C120.874 83.9788 120.979 84.0512 121.065 84.1427C121.49 84.4258 121.891 84.7325 122.292 85.0392C123.94 83.9277 125.806 83.1798 127.766 82.845V30.5612C124.87 30.0602 122.199 28.6757 120.121 26.5975C118.043 24.5193 116.659 21.8491 116.158 18.9531H30.8425C30.3415 21.8491 28.957 24.5193 26.8788 26.5975C24.8005 28.6757 22.1304 30.0602 19.2344 30.5612V82.845C22.1304 83.346 24.8005 84.7305 26.8788 86.8087C28.957 88.887 30.3415 91.5571 30.8425 94.4531H88.8595C89.0483 93.9105 89.2606 93.3914 89.4966 92.8723C89.7308 92.3292 89.9987 91.8013 90.2987 91.2916C90.5819 90.7725 90.865 90.3006 91.1717 89.8052C91.5728 89.2153 91.9975 88.6491 92.4458 88.1064C92.7053 87.7997 92.9413 87.493 93.2244 87.2098ZM52.2656 28.3906C52.2674 27.7654 52.5166 27.1664 52.9587 26.7243C53.4007 26.2822 53.9998 26.0331 54.625 26.0312H92.375C93.0002 26.0331 93.5993 26.2822 94.0413 26.7243C94.4834 27.1664 94.7326 27.7654 94.7344 28.3906V42.5469C94.7326 43.1721 94.4834 43.7711 94.0413 44.2132C93.5993 44.6553 93.0002 44.9044 92.375 44.9062H54.625C53.9998 44.9044 53.4007 44.6553 52.9587 44.2132C52.5166 43.7711 52.2674 43.1721 52.2656 42.5469V28.3906ZM49.9062 54.3438H97.0938C97.7195 54.3438 98.3196 54.5923 98.7621 55.0348C99.2046 55.4773 99.4531 56.0774 99.4531 56.7031C99.4531 57.3289 99.2046 57.929 98.7621 58.3715C98.3196 58.8139 97.7195 59.0625 97.0938 59.0625H49.9062C49.2805 59.0625 48.6804 58.8139 48.2379 58.3715C47.7955 57.929 47.5469 57.3289 47.5469 56.7031C47.5469 56.0774 47.7955 55.4773 48.2379 55.0348C48.6804 54.5923 49.2805 54.3438 49.9062 54.3438ZM42.8281 73.2188C42.2024 73.2188 41.6023 72.9702 41.1598 72.5277C40.7173 72.0852 40.4688 71.4851 40.4688 70.8594C40.4688 70.2336 40.7173 69.6335 41.1598 69.191C41.6023 68.7486 42.2024 68.5 42.8281 68.5H104.172C104.798 68.5 105.398 68.7486 105.84 69.191C106.283 69.6335 106.531 70.2336 106.531 70.8594C106.531 71.4851 106.283 72.0852 105.84 72.5277C105.398 72.9702 104.798 73.2188 104.172 73.2188H42.8281Z" fill="#EF69D2"/>
<path d="M90.0156 30.7495H56.9844V40.187H90.0156V30.7495Z" fill="#EF69D2"/>
<path d="M144.281 0.078125H2.71875C2.09356 0.0799302 1.49449 0.329086 1.05241 0.771164C0.610336 1.21324 0.36118 1.81231 0.359375 2.4375V110.969C0.36118 111.594 0.610336 112.193 1.05241 112.635C1.49449 113.077 2.09356 113.326 2.71875 113.328H91.2425C90.983 112.927 90.7234 112.526 90.5111 112.125C88.6363 108.91 87.651 105.253 87.6562 101.531C87.6564 100.743 87.7037 99.9548 87.7978 99.1719H28.6719C28.0467 99.1701 27.4476 98.9209 27.0055 98.4788C26.5635 98.0368 26.3143 97.4377 26.3125 96.8125C26.3128 95.5731 26.069 94.3457 25.5948 93.2005C25.1206 92.0554 24.4255 91.0148 23.5491 90.1384C22.6727 89.262 21.6321 88.5668 20.487 88.0927C19.3418 87.6185 18.1144 87.3747 16.875 87.375C16.2498 87.3732 15.6507 87.124 15.2087 86.682C14.7666 86.2399 14.5174 85.6408 14.5156 85.0156V28.3906C14.5174 27.7654 14.7666 27.1664 15.2087 26.7243C15.6507 26.2822 16.2498 26.0331 16.875 26.0312C18.1144 26.0316 19.3418 25.7877 20.487 25.3136C21.6321 24.8394 22.6727 24.1443 23.5491 23.2678C24.4255 22.3914 25.1206 21.3509 25.5948 20.2057C26.069 19.0606 26.3128 17.8332 26.3125 16.5938C26.3143 15.9686 26.5635 15.3695 27.0055 14.9274C27.4476 14.4853 28.0467 14.2362 28.6719 14.2344H118.328C118.953 14.2362 119.552 14.4853 119.994 14.9274C120.437 15.3695 120.686 15.9686 120.688 16.5938C120.687 17.8332 120.931 19.0606 121.405 20.2057C121.879 21.3509 122.574 22.3914 123.451 23.2678C124.327 24.1443 125.368 24.8394 126.513 25.3136C127.658 25.7877 128.886 26.0316 130.125 26.0312C130.75 26.0331 131.349 26.2822 131.791 26.7243C132.233 27.1664 132.483 27.7654 132.484 28.3906V85.0156C132.483 85.6408 132.233 86.2399 131.791 86.682C131.349 87.124 130.75 87.3732 130.125 87.375C128.567 87.3749 127.035 87.7642 125.666 88.5075C128.259 91.8399 129.796 95.8724 130.078 100.086C130.36 104.299 129.374 108.5 127.247 112.148C127.033 112.555 126.797 112.949 126.539 113.328H144.281C144.906 113.326 145.506 113.077 145.948 112.635C146.39 112.193 146.639 111.594 146.641 110.969V2.4375C146.639 1.81231 146.39 1.21324 145.948 0.771164C145.506 0.329086 144.906 0.0799302 144.281 0.078125Z" fill="#EF69D2"/>
</svg>
