<?xml version="1.0" encoding="UTF-8" standalone="no"?>
<svg
   xmlns:dc="http://purl.org/dc/elements/1.1/"
   xmlns:cc="http://creativecommons.org/ns#"
   xmlns:rdf="http://www.w3.org/1999/02/22-rdf-syntax-ns#"
   xmlns:svg="http://www.w3.org/2000/svg"
   xmlns="http://www.w3.org/2000/svg"
   xmlns:sodipodi="http://sodipodi.sourceforge.net/DTD/sodipodi-0.dtd"
   xmlns:inkscape="http://www.inkscape.org/namespaces/inkscape"
   version="1.1"
   width="137"
   height="137"
   stroke="#000000"
   stroke-width="30"
   fill="none"
   id="svg10"
   sodipodi:docname="mentor.svg"
   inkscape:version="1.0.1 (0767f8302a, 2020-10-17)">
  <metadata
     id="metadata16">
    <rdf:RDF>
      <cc:Work
         rdf:about="">
        <dc:format>image/svg+xml</dc:format>
        <dc:type
           rdf:resource="http://purl.org/dc/dcmitype/StillImage" />
        <dc:title>Abstract user icon</dc:title>
      </cc:Work>
    </rdf:RDF>
  </metadata>
  <defs
     id="defs14" />
  <sodipodi:namedview
     pagecolor="#ffffff"
     bordercolor="#666666"
     borderopacity="1"
     objecttolerance="10"
     gridtolerance="10"
     guidetolerance="10"
     inkscape:pageopacity="0"
     inkscape:pageshadow="2"
     inkscape:window-width="1920"
     inkscape:window-height="1043"
     id="namedview12"
     showgrid="false"
     inkscape:zoom="0.38125"
     inkscape:cx="-181.30362"
     inkscape:cy="576.18546"
     inkscape:window-x="0"
     inkscape:window-y="0"
     inkscape:window-maximized="1"
     inkscape:current-layer="svg10"
     inkscape:document-rotation="0" />
  <title
     id="title2">Abstract user icon</title>
  <g
     id="g838"
     transform="matrix(0.91827159,0,0,0.91827159,-206.98148,-206.98148)">
    <circle
       cx="300"
       cy="300"
       r="65.927269"
       id="circle4"
       style="stroke:#ef69d2;stroke-width:7.46346;stroke-opacity:1" />
    <circle
       cx="300"
       cy="282.58524"
       r="28.609947"
       id="circle6"
       style="stroke:#ef69d2;stroke-width:7.46346;stroke-opacity:1" />
    <path
       d="m 251.93992,345.12908 a 51.000342,51.000342 0 0 1 96.12016,0"
       stroke-linecap="butt"
       id="path8"
       style="stroke:#ef69d2;stroke-width:7.46346;stroke-opacity:1" />
    <path
       style="fill:#ef69d2;fill-opacity:1;stroke:#ef69d2;stroke-width:9.78816;stroke-opacity:1"
       d="m 249.57856,336.08519 c -3.60126,-5.04788 -6.37853,-10.53478 -8.38784,-16.57135 -7.25089,-21.78393 -1.9579,-45.55089 13.83228,-62.11066 8.91445,-9.34893 19.93439,-15.47393 32.788,-18.22392 3.78876,-0.81059 4.66571,-0.87477 12.07902,-0.88403 7.08357,-0.009 8.41712,0.0758 11.71313,0.74335 25.22365,5.10867 44.12518,24.00522 49.34236,49.32938 0.69233,3.3606 0.77195,4.58623 0.76301,11.74578 -0.009,7.4133 -0.0734,8.29025 -0.88403,12.07902 -1.70882,7.98713 -4.98277,15.78774 -9.43229,22.47367 -2.25275,3.385 -2.14607,3.36959 -3.60927,0.52151 -2.91173,-5.66758 -9.13643,-12.64942 -15.4219,-17.29775 -3.97451,-2.93929 -7.61316,-4.88487 -13.8236,-7.39148 l -1.09203,-0.44076 1.48068,-1.06334 c 13.00232,-9.33756 17.2769,-27.06424 9.94452,-41.23988 -1.74133,-3.36649 -3.08284,-5.19683 -5.89721,-8.04605 -4.48072,-4.53619 -10.17481,-7.61423 -16.51923,-8.92974 -4.42801,-0.91815 -11.00509,-0.6905 -15.21034,0.52647 -12.11756,3.50672 -20.84416,13.11666 -23.18926,25.53654 -0.72175,3.82249 -0.4869,10.25661 0.51003,13.97304 0.79347,2.95799 3.00339,7.83576 4.60416,10.1624 1.57144,2.28402 5.60071,6.39641 7.64996,7.80778 0.9784,0.67385 1.77891,1.25451 1.77891,1.29037 0,0.0358 -0.91764,0.39451 -2.0392,0.79702 -3.23,1.1592 -9.26696,4.4026 -12.63737,6.78951 -5.90237,4.18003 -12.24842,11.28405 -15.72881,17.60744 -0.71607,1.30101 -1.34832,2.36547 -1.405,2.36547 -0.0567,0 -0.60058,-0.69741 -1.20868,-1.54979 z"
       id="path843" />
  </g>
</svg>
