<svg width="154" height="131" viewBox="0 0 154 131" fill="none" xmlns="http://www.w3.org/2000/svg">
<path d="M137.177 0.107117H17.2154C7.94558 0.107117 0.856934 7.15846 0.856934 16.3794V114.013C0.856934 123.234 7.94558 130.286 17.2154 130.286H137.177C146.447 130.286 153.536 123.234 153.536 114.013V16.3794C153.536 7.15846 146.447 0.107117 137.177 0.107117ZM39.5719 19.6339C40.1171 19.0915 40.1171 18.5491 40.6624 18.0067C41.2077 17.4643 41.753 16.9218 42.2983 16.9218C44.4794 15.837 46.6605 16.3794 48.2963 18.0067C48.8416 18.5491 49.3869 19.0915 49.3869 19.6339C49.9322 20.1763 49.9322 21.2611 49.9322 21.8035C49.9322 23.4308 49.3869 24.5156 48.2963 25.6004C47.2058 26.6852 46.1152 27.2277 44.4794 27.2277C42.8435 27.2277 41.753 26.6852 40.6624 25.6004C39.5719 24.5156 39.0266 23.4308 39.0266 21.8035C39.0266 21.2611 39.0266 20.1763 39.5719 19.6339ZM22.6682 21.8035C22.6682 20.1763 23.2134 19.0915 24.304 18.0067L24.8493 17.4643C25.3946 17.4643 25.3946 16.9218 25.9398 16.9218C26.4851 16.3794 26.4851 16.3794 27.0304 16.3794C27.5757 16.3794 28.6662 16.3794 29.2115 16.3794C29.7568 16.3794 29.7568 16.3794 30.3021 16.9218C30.8474 16.9218 30.8474 17.4643 31.3926 17.4643L31.9379 18.0067C32.4832 18.5491 33.0285 19.0915 33.0285 19.6339C33.5738 20.1763 33.5738 21.2611 33.5738 21.8035C33.5738 22.346 33.5738 23.4308 33.0285 23.9732C33.0285 24.5156 32.4832 25.058 31.9379 25.6004C30.8474 26.6852 29.7568 27.2277 28.121 27.2277C26.4851 27.2277 25.3946 26.6852 24.304 25.6004C23.2134 24.5156 22.6682 23.4308 22.6682 21.8035ZM53.7491 93.9442C55.9303 96.1138 55.9303 99.3683 53.7491 101.538C52.6586 102.623 51.568 103.165 49.9322 103.165C48.2963 103.165 47.2058 102.623 46.1152 101.538L29.7568 85.2656C27.5757 83.096 27.5757 79.8415 29.7568 77.6718L46.1152 61.3995C48.2963 59.2299 51.568 59.2299 53.7491 61.3995C55.9303 63.5692 55.9303 66.8236 53.7491 68.9933L41.2077 81.4687L53.7491 93.9442ZM58.6567 26.6852C58.1114 26.1428 57.5661 26.1428 57.0208 25.6004C56.4756 25.058 55.9303 24.5156 55.9303 23.9732C55.385 23.4308 55.385 22.346 55.385 21.8035C55.385 21.2611 55.385 20.1763 55.9303 19.6339C56.4756 19.0915 56.4756 18.5491 57.0208 18.0067C59.202 15.837 62.4736 15.837 64.6548 18.0067C65.2 18.5491 65.7453 19.0915 65.7453 19.6339C66.2906 20.1763 66.2906 21.2611 66.2906 21.8035C66.2906 22.346 66.2906 23.4308 65.7453 23.9732C65.2 24.5156 65.2 25.058 64.6548 25.6004C63.5642 26.6852 62.4736 27.2277 60.8378 27.2277C60.2925 27.2277 59.202 27.2276 58.6567 26.6852ZM93.0094 61.9419L71.1981 105.335C70.1076 107.504 68.4717 108.589 66.2906 108.589C65.2 108.589 64.6548 108.589 64.1095 108.047C61.3831 106.962 60.2925 103.708 61.9284 100.996L83.7396 57.6027C84.8301 54.8906 88.1018 53.8058 90.8282 55.433C93.0094 56.5178 94.0999 59.7723 93.0094 61.9419ZM124.636 85.2656L108.277 101.538C107.187 102.623 106.096 103.165 104.46 103.165C102.824 103.165 101.734 102.623 100.643 101.538C98.4622 99.3683 98.4622 96.1138 100.643 93.9442L113.185 81.4687L100.643 68.9933C98.4622 66.8236 98.4622 63.5692 100.643 61.3995C102.824 59.2299 106.096 59.2299 108.277 61.3995L124.636 77.6718C126.817 79.8415 126.817 83.096 124.636 85.2656Z" fill="#EF69D2"/>
</svg>
