<?xml version="1.0" encoding="UTF-8" standalone="no"?>
<!DOCTYPE svg PUBLIC "-//W3C//DTD SVG 1.1//EN" "http://www.w3.org/Graphics/SVG/1.1/DTD/svg11.dtd">
<svg width="100%" height="100%" viewBox="0 0 2012 794" version="1.1" xmlns="http://www.w3.org/2000/svg" xmlns:xlink="http://www.w3.org/1999/xlink" xml:space="preserve" xmlns:serif="http://www.serif.com/" style="fill-rule:evenodd;clip-rule:evenodd;">
    <g transform="matrix(1,0,0,1,-292.283,-2291.62)">
        <g transform="matrix(2.10644,0,0,2.10644,740.11,2744.18)">
            <g transform="matrix(1,0,0,1,-212.598,-162.022)">
                <clipPath id="_clip1">
                    <rect x="0" y="0" width="425.197" height="324.044"/>
                </clipPath>
                <g clip-path="url(#_clip1)">
                    <g id="g3862">
                    </g>
                    <g id="g12966" transform="matrix(2.62965,0,0,2.62965,-53.8582,-41.2145)">
                        <g id="g12784">
                            <g id="g2342-1-7" transform="matrix(0.766834,0,0,0.769545,22.2968,-93.0393)">
                                <g id="path2083-5-8" transform="matrix(0.264583,0,0,0.264583,0,0)">
                                    <path d="M531.252,533.999C511.069,533.176 491.23,539.514 475.263,551.887L481.823,560.357C509.088,539.229 547.582,539.505 574.542,561.022L581.224,552.645C566.976,541.275 549.466,534.741 531.252,533.999Z" style="fill:rgb(0,62,89);fill-rule:nonzero;"/>
                                </g>
                                <g id="path2083-3-7-4-5" transform="matrix(0.264583,0,0,0.264583,0,0)">
                                    <path d="M530.383,555.408C515.245,554.791 500.365,559.547 488.39,568.828L494.95,577.293C514.425,562.203 541.921,562.4 561.177,577.769L567.859,569.393C557.174,560.866 544.042,555.965 530.383,555.408Z" style="fill:rgb(0,62,89);fill-rule:nonzero;"/>
                                </g>
                                <g id="path2083-3-7-6-9-9-66-5" transform="matrix(0.264583,0,0,0.264583,0,0)">
                                    <path d="M529.508,576.817C519.415,576.406 509.495,579.576 501.511,585.764L527.759,619.636L508.077,594.229C519.762,585.176 536.259,585.296 547.812,594.517L554.494,586.14C547.37,580.455 538.615,577.188 529.508,576.817Z" style="fill:rgb(0,62,89);fill-rule:nonzero;"/>
                                </g>
                            </g>
                            <g id="g2489-8-1-1-4" transform="matrix(0.142699,0,0,0.142699,85.5022,-11.2788)">
                                <path id="path2356-1-9-4-0" d="M308.3,316.43L308.784,408.886L308.3,316.43Z" style="fill:rgb(0,62,89);fill-rule:nonzero;stroke:black;stroke-width:1.37px;"/>
                                <rect id="rect2362-6-3-8-4" x="305.955" y="296.753" width="5.175" height="168.293" style="fill:rgb(0,62,89);"/>
                                <rect id="rect2364-2-9-2-6" x="308.784" y="371.09" width="39.072" height="5.175" style="fill:rgb(0,62,89);"/>
                                <rect id="rect2368-7-0-4-1" x="269.118" y="355.828" width="38.087" height="5.175" style="fill:rgb(0,62,89);"/>
                                <rect id="rect2370-4-9-5-0" x="347.856" y="330.349" width="5.175" height="45.915" style="fill:rgb(0,62,89);"/>
                                <rect id="rect2372-2-4-5-40" x="269.118" y="327.476" width="5.175" height="33.527" style="fill:rgb(0,62,89);"/>
                                <ellipse id="ellipse2374-2-9-25-99" cx="272.052" cy="322.09" rx="10.349" ry="10.349" style="fill:rgb(0,62,89);"/>
                                <ellipse id="ellipse2378-8-6-7-8" cx="307.795" cy="290.94" rx="10.349" ry="10.349" style="fill:rgb(0,62,89);"/>
                                <ellipse id="ellipse2380-8-2-4-9" cx="350.443" cy="330.349" rx="10.349" ry="10.349" style="fill:rgb(0,62,89);"/>
                            </g>
                        </g>
                        <path id="path3988-17" d="M127.622,49.641C127.614,48.247 131.226,48.233 131.217,49.618L131.951,89.811C130.189,90.434 128.64,90.436 126.803,89.811L127.622,49.641Z" style="fill:rgb(29,98,127);fill-rule:nonzero;"/>
                        <path id="path14" d="M81.245,27.119C72.809,27.147 63.315,27.879 52.192,29.698L43.786,69.04C40.611,69.713 37.446,70.385 33.761,70.774L34.336,88.398C37.283,84.981 40.938,82.191 45.072,80.255C45.329,80.135 45.588,80.018 45.848,79.904C45.852,79.902 45.855,79.901 45.859,79.899C46.096,79.796 46.334,79.696 46.573,79.598C46.614,79.581 46.654,79.565 46.694,79.548C46.926,79.455 47.16,79.365 47.395,79.276C47.418,79.267 47.442,79.258 47.465,79.249C47.721,79.154 47.977,79.062 48.236,78.974C48.246,78.97 48.256,78.966 48.267,78.963C48.537,78.87 48.809,78.78 49.082,78.695C49.622,78.526 50.167,78.371 50.718,78.231C50.802,78.21 50.886,78.19 50.969,78.17C51.154,78.124 51.339,78.079 51.525,78.037C51.626,78.013 51.729,77.992 51.83,77.97C52.012,77.931 52.193,77.891 52.376,77.855C52.46,77.838 52.544,77.823 52.628,77.807C52.823,77.769 53.019,77.733 53.215,77.7C53.312,77.683 53.409,77.667 53.506,77.651C53.676,77.624 53.847,77.598 54.018,77.573C54.144,77.554 54.271,77.537 54.398,77.52C54.55,77.499 54.703,77.48 54.856,77.462C54.985,77.446 55.114,77.432 55.244,77.418C55.394,77.402 55.544,77.388 55.694,77.374C55.836,77.361 55.977,77.348 56.119,77.336C56.256,77.326 56.393,77.317 56.53,77.308C56.675,77.298 56.82,77.288 56.967,77.28C57.141,77.271 57.315,77.265 57.49,77.258C57.601,77.254 57.711,77.248 57.822,77.245C58.111,77.238 58.4,77.233 58.69,77.233C59.245,77.233 59.796,77.248 60.344,77.275C60.892,77.303 61.436,77.345 61.977,77.399C62.787,77.482 63.589,77.594 64.38,77.735C64.38,77.735 64.38,77.735 64.381,77.735C64.644,77.782 64.907,77.833 65.169,77.887C65.692,77.994 66.21,78.113 66.724,78.246C67.237,78.378 67.746,78.522 68.249,78.678C68.752,78.835 69.251,79.004 69.743,79.184C70.235,79.364 70.722,79.556 71.203,79.759C72.164,80.166 73.101,80.618 74.012,81.113C74.012,81.113 74.013,81.113 74.013,81.113C74.468,81.36 74.917,81.619 75.358,81.887C75.359,81.887 75.359,81.887 75.359,81.887C75.58,82.021 75.799,82.158 76.016,82.298C76.016,82.298 76.016,82.298 76.017,82.298C76.451,82.576 76.879,82.865 77.299,83.164C78.139,83.762 78.949,84.398 79.727,85.072C79.727,85.072 79.727,85.072 79.727,85.072C79.922,85.24 80.114,85.411 80.304,85.584C81.065,86.276 81.793,87.004 82.485,87.765C82.658,87.955 82.829,88.147 82.997,88.342C83.671,89.12 84.308,89.93 84.905,90.77C85.204,91.19 85.493,91.618 85.772,92.053C85.772,92.053 85.772,92.053 85.772,92.053C85.911,92.271 86.048,92.489 86.182,92.71C86.316,92.931 86.448,93.154 86.577,93.378C86.835,93.827 87.083,94.283 87.319,94.745C87.438,94.976 87.553,95.208 87.666,95.442C87.892,95.911 88.107,96.386 88.31,96.867C88.513,97.347 88.705,97.834 88.885,98.326C89.066,98.818 89.234,99.317 89.391,99.82C89.547,100.324 89.692,100.832 89.824,101.346C89.956,101.859 90.076,102.378 90.183,102.901C90.236,103.162 90.287,103.425 90.334,103.688C90.475,104.48 90.588,105.282 90.67,106.092C90.725,106.633 90.766,107.177 90.794,107.725C90.822,108.273 90.836,108.824 90.836,109.379L93.034,109.379L93.034,109.38L101.732,109.38L101.732,109.379L140.229,109.379C143.929,104.023 150.108,100.511 157.11,100.511C164.113,100.511 170.292,104.023 173.992,109.379L180.728,109.379L182.174,91.928L182.174,80.061L170.788,69.511L118.399,65.643L109.756,29.698C101.19,28.214 92.091,27.084 81.245,27.119Z" style="fill:rgb(29,121,161);fill-rule:nonzero;"/>
                        <g id="path52-7" transform="matrix(0.0811924,0,0,-0.0811924,176.093,121.019)">
                            <path d="M-13.564,0.001C-13.564,-121.629 -112.163,-220.231 -233.793,-220.231C-355.421,-220.231 -454.02,-121.629 -454.02,0.001C-454.02,121.631 -355.421,220.231 -233.793,220.231C-112.163,220.231 -13.564,121.631 -13.564,0.001" style="fill:rgb(0,62,89);fill-rule:nonzero;"/>
                        </g>
                        <g id="path60-3-4" transform="matrix(0.111104,0,0,-0.111104,167.69,120.307)">
                            <path d="M-11.543,-6.403C-11.543,-52.617 -49.007,-90.08 -95.22,-90.08C-141.433,-90.08 -178.896,-52.617 -178.896,-6.403C-178.896,39.807 -141.433,77.273 -95.22,77.273C-49.007,77.273 -11.543,39.807 -11.543,-6.403" style="fill:rgb(249,255,221);fill-rule:nonzero;"/>
                        </g>
                        <g id="path60-6" transform="matrix(0.0660988,0,0,-0.0660988,163.404,120.595)">
                            <path d="M-11.543,-6.403C-11.543,-52.617 -49.007,-90.08 -95.22,-90.08C-141.433,-90.08 -178.896,-52.617 -178.896,-6.403C-178.896,39.807 -141.433,77.273 -95.22,77.273C-49.007,77.273 -11.543,39.807 -11.543,-6.403" style="fill:rgb(0,62,89);fill-rule:nonzero;"/>
                        </g>
                        <g id="g12758" transform="matrix(0.463198,0,0,0.463198,5.21048,-12.9145)">
                            <g id="path36" transform="matrix(0.276957,0,0,-0.276957,363.235,206.365)">
                                <path d="M0,0L-4.737,-0.502C-8.334,-0.882 -13.116,0.473 -15.412,2.52L-86.479,65.871C-88.775,67.918 -87.718,69.885 -84.121,70.265L-79.384,70.764C-75.784,71.144 -71.005,69.792 -68.709,67.745L2.358,4.394C4.657,2.344 3.6,0.38 0,0" style="fill:rgb(107,199,238);fill-rule:nonzero;"/>
                            </g>
                            <g id="path40" transform="matrix(0.276957,0,0,-0.276957,353.029,206.365)">
                                <path d="M0,0L-4.737,-0.502C-8.334,-0.882 -13.116,0.473 -15.412,2.52L-86.479,65.871C-88.775,67.918 -87.718,69.885 -84.121,70.265L-79.384,70.764C-75.784,71.144 -71.005,69.792 -68.709,67.745L2.358,4.394C4.657,2.344 3.6,0.38 0,0" style="fill:rgb(107,199,238);fill-rule:nonzero;"/>
                            </g>
                            <g id="path44" transform="matrix(0.276957,0,0,-0.276957,343.032,206.365)">
                                <path d="M0,0L-4.74,-0.502C-8.337,-0.882 -13.116,0.473 -15.412,2.52L-86.482,65.871C-88.775,67.918 -87.721,69.885 -84.124,70.265L-79.384,70.764C-75.784,71.144 -71.008,69.792 -68.709,67.745L2.358,4.394C4.654,2.344 3.6,0.38 0,0" style="fill:rgb(107,199,238);fill-rule:nonzero;"/>
                            </g>
                            <g id="path48" transform="matrix(0.276957,0,0,-0.276957,333.403,206.365)">
                                <path d="M0,0L-4.737,-0.502C-8.334,-0.882 -13.116,0.473 -15.412,2.52L-86.479,65.871C-88.775,67.918 -87.718,69.885 -84.121,70.265L-79.384,70.764C-75.784,71.144 -71.005,69.792 -68.709,67.745L2.358,4.394C4.657,2.344 3.6,0.38 0,0" style="fill:rgb(107,199,238);fill-rule:nonzero;"/>
                            </g>
                        </g>
                        <g id="path52" transform="matrix(0.134041,0,0,-0.134041,90.028,109.38)">
                            <path d="M-13.564,0.001C-13.564,-121.629 -112.163,-220.231 -233.793,-220.231C-355.421,-220.231 -454.02,-121.629 -454.02,0.001C-454.02,121.631 -355.421,220.231 -233.793,220.231C-112.163,220.231 -13.564,121.631 -13.564,0.001" style="fill:rgb(0,62,89);fill-rule:nonzero;"/>
                        </g>
                        <g id="path60-3" transform="matrix(0.183422,0,0,-0.183422,76.1557,108.205)">
                            <path d="M-11.543,-6.403C-11.543,-52.617 -49.007,-90.08 -95.22,-90.08C-141.433,-90.08 -178.896,-52.617 -178.896,-6.403C-178.896,39.807 -141.433,77.273 -95.22,77.273C-49.007,77.273 -11.543,39.807 -11.543,-6.403" style="fill:rgb(249,255,221);fill-rule:nonzero;"/>
                        </g>
                        <g id="path60" transform="matrix(0.109123,0,0,-0.109123,69.0809,108.681)">
                            <path d="M-11.543,-6.403C-11.543,-52.617 -49.007,-90.08 -95.22,-90.08C-141.433,-90.08 -178.896,-52.617 -178.896,-6.403C-178.896,39.807 -141.433,77.273 -95.22,77.273C-49.007,77.273 -11.543,39.807 -11.543,-6.403" style="fill:rgb(0,62,89);fill-rule:nonzero;"/>
                        </g>
                        <g id="g12748" transform="matrix(0.463198,0,0,0.463198,5.21048,-12.9145)">
                            <path id="path16" d="M156.626,185.882L98.808,185.882L114.087,108.448L156.626,108.448L156.626,185.882Z" style="fill:rgb(49,168,218);fill-rule:nonzero;"/>
                            <path id="path2099" d="M166.494,108.448L212.6,108.448L229.647,185.671L166.494,185.882L166.494,108.448Z" style="fill:rgb(49,168,218);fill-rule:nonzero;"/>
                        </g>
                        <path id="path52-3-7" d="M59.885,67.007C48.638,67.068 42.723,69.909 33.261,70.828L23.001,96.832L29.086,96.832C29.095,96.811 29.104,96.791 29.113,96.77C29.239,96.476 29.37,96.185 29.503,95.896C29.541,95.815 29.578,95.735 29.616,95.654C29.766,95.338 29.919,95.024 30.078,94.713C30.236,94.407 30.4,94.104 30.567,93.803C30.606,93.733 30.644,93.662 30.684,93.592C30.856,93.287 31.032,92.985 31.214,92.686C31.218,92.68 31.222,92.673 31.226,92.666C31.398,92.384 31.576,92.105 31.757,91.828C31.809,91.748 31.862,91.668 31.915,91.589C32.104,91.305 32.296,91.023 32.494,90.746C32.494,90.745 32.494,90.744 32.495,90.743C32.691,90.468 32.893,90.197 33.098,89.928C33.15,89.86 33.203,89.791 33.255,89.723C33.467,89.449 33.682,89.177 33.903,88.911C33.904,88.909 33.905,88.908 33.906,88.907C34.124,88.643 34.347,88.386 34.572,88.13C34.627,88.068 34.681,88.006 34.736,87.945C34.961,87.694 35.189,87.445 35.421,87.201C35.422,87.2 35.423,87.199 35.424,87.198C35.452,87.168 35.482,87.14 35.51,87.11C35.714,86.897 35.922,86.688 36.132,86.482C36.209,86.405 36.287,86.329 36.365,86.254C36.599,86.028 36.835,85.803 37.076,85.585C37.078,85.583 37.08,85.581 37.082,85.579C37.103,85.56 37.125,85.542 37.147,85.522C37.381,85.311 37.619,85.103 37.859,84.899C37.926,84.841 37.994,84.784 38.061,84.728C38.325,84.507 38.59,84.289 38.861,84.077C39.128,83.867 39.4,83.663 39.674,83.462C39.745,83.409 39.817,83.357 39.889,83.305C40.162,83.107 40.437,82.913 40.717,82.724C40.721,82.721 40.726,82.718 40.73,82.715C40.736,82.711 40.742,82.708 40.748,82.704C41.025,82.517 41.306,82.336 41.588,82.158C41.666,82.109 41.743,82.061 41.821,82.013C42.108,81.835 42.397,81.661 42.69,81.492C42.693,81.491 42.696,81.489 42.699,81.487C42.708,81.482 42.716,81.478 42.725,81.473C43.015,81.306 43.31,81.145 43.606,80.988C43.683,80.946 43.761,80.905 43.839,80.865C44.142,80.707 44.445,80.552 44.754,80.403C44.757,80.402 44.761,80.4 44.764,80.398C44.769,80.396 44.773,80.394 44.778,80.392C45.084,80.244 45.394,80.104 45.705,79.966C45.787,79.93 45.869,79.894 45.95,79.859C46.266,79.723 46.583,79.59 46.903,79.463C46.903,79.463 46.904,79.463 46.904,79.463C46.924,79.455 46.944,79.449 46.963,79.441C47.263,79.323 47.565,79.211 47.869,79.102C47.97,79.066 48.071,79.031 48.173,78.996C48.49,78.886 48.809,78.778 49.131,78.678C49.133,78.678 49.135,78.677 49.137,78.676C49.143,78.674 49.149,78.673 49.154,78.671C49.481,78.57 49.81,78.476 50.141,78.385C50.232,78.36 50.323,78.335 50.415,78.311C50.743,78.224 51.073,78.14 51.405,78.063C51.413,78.061 51.421,78.059 51.43,78.057C51.433,78.056 51.435,78.055 51.438,78.055C51.457,78.05 51.478,78.046 51.498,78.042C51.819,77.968 52.142,77.901 52.466,77.837C52.559,77.819 52.653,77.801 52.746,77.784C53.094,77.719 53.443,77.657 53.795,77.603C53.797,77.603 53.799,77.603 53.802,77.603C54.147,77.55 54.495,77.504 54.844,77.463C54.949,77.45 55.055,77.439 55.16,77.427C55.486,77.391 55.813,77.36 56.141,77.334C56.193,77.33 56.245,77.326 56.298,77.322C56.632,77.297 56.968,77.279 57.306,77.265C57.401,77.261 57.497,77.257 57.593,77.254C57.957,77.242 58.323,77.233 58.69,77.233C59.245,77.233 59.796,77.248 60.344,77.275C60.892,77.303 61.436,77.344 61.977,77.399C62.787,77.482 63.589,77.594 64.38,77.735C64.38,77.735 64.38,77.735 64.381,77.735C64.644,77.782 64.907,77.833 65.169,77.886C65.692,77.994 66.21,78.113 66.724,78.245C67.237,78.378 67.746,78.522 68.249,78.678C68.752,78.835 69.251,79.004 69.743,79.184C70.235,79.364 70.722,79.556 71.203,79.759C72.164,80.166 73.101,80.618 74.012,81.113C74.012,81.113 74.013,81.113 74.013,81.113C74.468,81.36 74.917,81.619 75.358,81.887C75.359,81.887 75.359,81.887 75.359,81.887C75.58,82.021 75.799,82.158 76.016,82.297C76.016,82.298 76.016,82.297 76.017,82.297C76.451,82.576 76.879,82.865 77.299,83.164C78.139,83.761 78.949,84.398 79.727,85.072C79.727,85.072 79.727,85.072 79.727,85.072C79.922,85.24 80.114,85.411 80.304,85.584C81.065,86.276 81.793,87.004 82.485,87.765C82.658,87.955 82.829,88.147 82.997,88.342C83.671,89.119 84.308,89.93 84.905,90.77C85.204,91.19 85.493,91.618 85.772,92.052C85.772,92.053 85.772,92.053 85.772,92.053C85.911,92.27 86.048,92.489 86.182,92.71C86.316,92.931 86.448,93.154 86.577,93.378C86.835,93.827 87.083,94.283 87.319,94.745C87.438,94.976 87.553,95.208 87.666,95.442C87.892,95.911 88.107,96.386 88.31,96.867C88.513,97.347 88.705,97.834 88.885,98.326C89.066,98.818 89.234,99.317 89.391,99.82C89.547,100.323 89.692,100.832 89.824,101.345C89.956,101.859 90.076,102.377 90.183,102.901C90.236,103.162 90.287,103.424 90.334,103.688C90.475,104.48 90.587,105.282 90.67,106.092C90.725,106.633 90.766,107.177 90.794,107.725C90.822,108.273 90.836,108.824 90.836,109.379L93.034,109.379L93.034,109.38L101.732,109.38C101.732,86.168 83.038,67.255 59.885,67.007L59.885,67.007ZM23.001,96.832L20.482,96.831L20.481,96.832L23.001,96.832Z" style="fill:rgb(29,121,161);fill-rule:nonzero;"/>
                    </g>
                </g>
            </g>
        </g>
        <g transform="matrix(1.23357,0,0,1.23357,2129.1,2744.18)">
            <g transform="matrix(1,0,0,1,-141.732,-276.669)">
                <clipPath id="_clip2">
                    <rect x="0" y="0" width="283.465" height="553.337"/>
                </clipPath>
                <g clip-path="url(#_clip2)">
                    <g id="g38621" serif:id="g3862" transform="matrix(1,0,0,1,-2.69494e-06,-288.553)">
                        <rect id="rect1674-3" x="-134.902" y="445.891" width="21.281" height="60.641" style="fill:rgb(0,62,89);"/>
                        <rect id="rect1674-0-2" x="-113.621" y="445.891" width="21.281" height="60.641" style="fill:rgb(29,98,127);"/>
                        <rect id="rect1674-0-9-2" x="-92.34" y="445.891" width="21.281" height="60.641" style="fill:rgb(29,121,161);"/>
                        <rect id="rect1674-0-6-69" x="-71.059" y="445.891" width="21.281" height="60.641" style="fill:rgb(49,168,218);"/>
                        <rect id="rect1674-0-4-2" x="-49.778" y="445.891" width="21.281" height="60.641" style="fill:rgb(107,199,238);"/>
                        <rect id="rect1674-5-8" x="-134.902" y="506.532" width="21.281" height="60.641" style="fill:rgb(45,107,97);"/>
                        <rect id="rect1674-0-1-3" x="-113.621" y="506.532" width="21.281" height="60.641" style="fill:rgb(61,144,130);"/>
                        <rect id="rect1674-0-9-6-1" x="-92.34" y="506.532" width="21.281" height="60.641" style="fill:rgb(108,192,178);"/>
                        <rect id="rect1674-0-6-6-6" x="-71.059" y="506.532" width="21.281" height="60.641" style="fill:rgb(124,221,205);"/>
                        <rect id="rect1674-0-4-9-9" x="-49.778" y="506.532" width="21.281" height="60.641" style="fill:rgb(167,249,236);"/>
                        <rect id="rect1674-53-5" x="-134.902" y="567.173" width="21.281" height="60.641" style="fill:rgb(63,142,87);"/>
                        <rect id="rect1674-0-62-9" x="-113.621" y="567.173" width="21.281" height="60.641" style="fill:rgb(96,183,122);"/>
                        <rect id="rect1674-0-9-3-7" x="-92.34" y="567.173" width="21.281" height="60.641" style="fill:rgb(177,220,190);"/>
                        <rect id="rect1674-0-6-8-3" x="-71.059" y="567.173" width="21.281" height="60.641" style="fill:rgb(201,231,210);"/>
                        <rect id="rect1674-0-4-6-2" x="-49.778" y="567.173" width="21.281" height="60.641" style="fill:rgb(227,243,232);"/>
                        <rect id="rect1674-7-4" x="-134.902" y="688.455" width="21.281" height="60.641" style="fill:rgb(86,0,25);"/>
                        <rect id="rect1674-0-97-9" x="-113.621" y="688.455" width="21.281" height="60.641" style="fill:rgb(164,0,48);"/>
                        <rect id="rect1674-0-9-1-0" x="-92.34" y="688.455" width="21.281" height="60.641" style="fill:rgb(255,8,80);"/>
                        <rect id="rect1674-0-9-1-0-6" x="-71.059" y="688.455" width="21.281" height="60.641" style="fill:rgb(255,102,147);"/>
                        <rect id="rect1674-0-9-1-0-8" x="-49.778" y="688.455" width="21.281" height="60.641" style="fill:rgb(255,169,194);"/>
                        <rect id="rect1674-53-5-7" x="-134.902" y="627.814" width="21.281" height="60.641" style="fill:rgb(137,157,43);"/>
                        <rect id="rect1674-0-62-9-8" x="-113.621" y="627.814" width="21.281" height="60.641" style="fill:rgb(193,223,53);"/>
                        <rect id="rect1674-0-9-3-7-8" x="-92.34" y="627.814" width="21.281" height="60.641" style="fill:rgb(235,255,140);"/>
                        <rect id="rect1674-0-6-8-3-8" x="-71.059" y="627.814" width="21.281" height="60.641" style="fill:rgb(242,255,181);"/>
                        <rect id="rect1674-0-4-6-2-9" x="-49.778" y="627.814" width="21.281" height="60.641" style="fill:rgb(248,255,214);"/>
                    </g>
                    <g id="g3835" transform="matrix(2.90069,0,0,2.90069,-691.137,-1820.31)">
                        <path id="path2358-0-7" d="M281.202,742.231L278.86,818.206L295.395,818.304L292.976,742.522L281.202,742.231Z" style="fill:rgb(137,157,43);fill-rule:nonzero;"/>
                        <path id="path5654-1" d="M286.445,627.543C268.706,627.569 238.61,669.153 238.266,726.831L238.295,726.831C238.284,727.052 238.274,727.274 238.266,727.495C238.266,756.64 259.409,780.267 285.492,780.267C285.641,780.259 285.79,780.25 285.939,780.242L285.939,780.243C286.088,780.251 286.237,780.26 286.386,780.266C286.634,780.266 286.88,780.257 287.127,780.254C287.374,780.26 287.621,780.266 287.869,780.266C288.018,780.257 288.167,780.251 288.316,780.243L288.316,780.242C288.465,780.25 288.614,780.259 288.763,780.267C314.845,780.267 335.989,756.64 335.989,727.495C335.98,727.274 335.972,727.052 335.959,726.831L335.989,726.831C335.645,669.153 305.549,627.569 287.81,627.543C287.585,627.543 287.356,627.552 287.127,627.566C286.898,627.555 286.67,627.543 286.445,627.543Z" style="fill:rgb(96,183,122);fill-rule:nonzero;"/>
                        <g id="g2489-16-3" transform="matrix(-0.402717,0,0,0.402717,407.313,552.636)">
                            <path id="path2356-8-2" d="M296.709,296.845L297.119,375.104L296.709,296.845Z" style="fill:rgb(249,255,221);fill-rule:nonzero;stroke:black;stroke-width:1.16px;"/>
                            <rect id="rect2362-9-3" x="294.724" y="280.189" width="4.38" height="379.499" style="fill:rgb(249,255,221);"/>
                            <rect id="rect2364-7-0" x="297.119" y="366.412" width="38.08" height="4.38" style="fill:rgb(249,255,221);"/>
                            <rect id="rect2366-0-2" x="235.11" y="411.681" width="60.672" height="4.38" style="fill:rgb(249,255,221);"/>
                            <rect id="rect2368-1-8" x="263.543" y="343.168" width="32.239" height="4.38" style="fill:rgb(249,255,221);"/>
                            <rect id="rect2370-5-4" x="335.199" y="331.927" width="4.38" height="38.865" style="fill:rgb(249,255,221);"/>
                            <rect id="rect2372-7-3" x="263.543" y="319.169" width="4.38" height="28.379" style="fill:rgb(249,255,221);"/>
                            <ellipse id="ellipse2374-3-57" cx="266.026" cy="314.61" rx="8.76" ry="8.76" style="fill:rgb(249,255,221);"/>
                            <rect id="rect2376-5-2" x="235.11" y="380.009" width="4.38" height="36.053" style="fill:rgb(249,255,221);"/>
                            <ellipse id="ellipse2378-6-6" cx="296.281" cy="275.268" rx="8.76" ry="8.76" style="fill:rgb(249,255,221);"/>
                            <ellipse id="ellipse2380-6-7" cx="337.224" cy="327.127" rx="8.76" ry="8.76" style="fill:rgb(249,255,221);"/>
                            <ellipse id="ellipse2382-56-7" cx="237.3" cy="380.009" rx="8.76" ry="8.76" style="fill:rgb(249,255,221);"/>
                            <rect id="rect2364-7-1-61" x="299.104" y="498.188" width="38.08" height="4.38" style="fill:rgb(249,255,221);"/>
                            <rect id="rect2364-7-1-2-2" x="299.104" y="427.162" width="62.276" height="4.38" style="fill:rgb(249,255,221);"/>
                            <rect id="rect2364-7-1-1-9" x="249.044" y="477.114" width="45.68" height="4.38" style="fill:rgb(249,255,221);"/>
                            <rect id="rect2370-5-3-6" x="357" y="390.487" width="4.38" height="38.865" style="fill:rgb(249,255,221);"/>
                            <ellipse id="ellipse2382-56-1-0" cx="359.19" cy="390.487" rx="8.76" ry="8.76" style="fill:rgb(249,255,221);"/>
                            <rect id="rect2376-5-9-3" x="249.044" y="445.442" width="4.38" height="36.053" style="fill:rgb(249,255,221);"/>
                            <ellipse id="ellipse2382-56-6-3" cx="251.234" cy="445.442" rx="8.76" ry="8.76" style="fill:rgb(249,255,221);"/>
                            <rect id="rect2376-5-9-1-1" x="332.804" y="466.516" width="4.38" height="36.053" style="fill:rgb(249,255,221);"/>
                            <ellipse id="ellipse2382-56-6-9-7" cx="334.994" cy="466.516" rx="8.76" ry="8.76" style="fill:rgb(249,255,221);"/>
                        </g>
                    </g>
                </g>
            </g>
        </g>
        <g transform="matrix(1.43465,0,0,1.43465,1669.98,2688.55)">
            <g transform="matrix(1,0,0,1,-141.732,-276.669)">
                <clipPath id="_clip3">
                    <rect x="0" y="0" width="283.465" height="553.337"/>
                </clipPath>
                <g clip-path="url(#_clip3)">
                    <g id="g38622" serif:id="g3862" transform="matrix(1,0,0,1,1.14192e-05,-288.553)">
                        <rect id="rect1674-31" serif:id="rect1674-3" x="-134.902" y="445.891" width="21.281" height="60.641" style="fill:rgb(0,62,89);"/>
                        <rect id="rect1674-0-21" serif:id="rect1674-0-2" x="-113.621" y="445.891" width="21.281" height="60.641" style="fill:rgb(29,98,127);"/>
                        <rect id="rect1674-0-9-21" serif:id="rect1674-0-9-2" x="-92.34" y="445.891" width="21.281" height="60.641" style="fill:rgb(29,121,161);"/>
                        <rect id="rect1674-0-6-691" serif:id="rect1674-0-6-69" x="-71.059" y="445.891" width="21.281" height="60.641" style="fill:rgb(49,168,218);"/>
                        <rect id="rect1674-0-4-21" serif:id="rect1674-0-4-2" x="-49.778" y="445.891" width="21.281" height="60.641" style="fill:rgb(107,199,238);"/>
                        <rect id="rect1674-5-81" serif:id="rect1674-5-8" x="-134.902" y="506.532" width="21.281" height="60.641" style="fill:rgb(45,107,97);"/>
                        <rect id="rect1674-0-1-31" serif:id="rect1674-0-1-3" x="-113.621" y="506.532" width="21.281" height="60.641" style="fill:rgb(61,144,130);"/>
                        <rect id="rect1674-0-9-6-11" serif:id="rect1674-0-9-6-1" x="-92.34" y="506.532" width="21.281" height="60.641" style="fill:rgb(108,192,178);"/>
                        <rect id="rect1674-0-6-6-61" serif:id="rect1674-0-6-6-6" x="-71.059" y="506.532" width="21.281" height="60.641" style="fill:rgb(124,221,205);"/>
                        <rect id="rect1674-0-4-9-91" serif:id="rect1674-0-4-9-9" x="-49.778" y="506.532" width="21.281" height="60.641" style="fill:rgb(167,249,236);"/>
                        <rect id="rect1674-53-51" serif:id="rect1674-53-5" x="-134.902" y="567.173" width="21.281" height="60.641" style="fill:rgb(63,142,87);"/>
                        <rect id="rect1674-0-62-91" serif:id="rect1674-0-62-9" x="-113.621" y="567.173" width="21.281" height="60.641" style="fill:rgb(96,183,122);"/>
                        <rect id="rect1674-0-9-3-71" serif:id="rect1674-0-9-3-7" x="-92.34" y="567.173" width="21.281" height="60.641" style="fill:rgb(177,220,190);"/>
                        <rect id="rect1674-0-6-8-31" serif:id="rect1674-0-6-8-3" x="-71.059" y="567.173" width="21.281" height="60.641" style="fill:rgb(201,231,210);"/>
                        <rect id="rect1674-0-4-6-21" serif:id="rect1674-0-4-6-2" x="-49.778" y="567.173" width="21.281" height="60.641" style="fill:rgb(227,243,232);"/>
                        <rect id="rect1674-7-41" serif:id="rect1674-7-4" x="-134.902" y="688.455" width="21.281" height="60.641" style="fill:rgb(86,0,25);"/>
                        <rect id="rect1674-0-97-91" serif:id="rect1674-0-97-9" x="-113.621" y="688.455" width="21.281" height="60.641" style="fill:rgb(164,0,48);"/>
                        <rect id="rect1674-0-9-1-01" serif:id="rect1674-0-9-1-0" x="-92.34" y="688.455" width="21.281" height="60.641" style="fill:rgb(255,8,80);"/>
                        <rect id="rect1674-0-9-1-0-61" serif:id="rect1674-0-9-1-0-6" x="-71.059" y="688.455" width="21.281" height="60.641" style="fill:rgb(255,102,147);"/>
                        <rect id="rect1674-0-9-1-0-81" serif:id="rect1674-0-9-1-0-8" x="-49.778" y="688.455" width="21.281" height="60.641" style="fill:rgb(255,169,194);"/>
                        <rect id="rect1674-53-5-71" serif:id="rect1674-53-5-7" x="-134.902" y="627.814" width="21.281" height="60.641" style="fill:rgb(137,157,43);"/>
                        <rect id="rect1674-0-62-9-81" serif:id="rect1674-0-62-9-8" x="-113.621" y="627.814" width="21.281" height="60.641" style="fill:rgb(193,223,53);"/>
                        <rect id="rect1674-0-9-3-7-81" serif:id="rect1674-0-9-3-7-8" x="-92.34" y="627.814" width="21.281" height="60.641" style="fill:rgb(235,255,140);"/>
                        <rect id="rect1674-0-6-8-3-81" serif:id="rect1674-0-6-8-3-8" x="-71.059" y="627.814" width="21.281" height="60.641" style="fill:rgb(242,255,181);"/>
                        <rect id="rect1674-0-4-6-2-91" serif:id="rect1674-0-4-6-2-9" x="-49.778" y="627.814" width="21.281" height="60.641" style="fill:rgb(248,255,214);"/>
                    </g>
                    <g id="g3995" transform="matrix(2.9007,0,0,2.9007,-1017.39,-1820.31)">
                        <path id="path2358-0-7-1-4" d="M393.676,742.23L391.335,818.206L407.869,818.304L405.451,742.522L393.676,742.23Z" style="fill:rgb(164,0,48);fill-rule:nonzero;"/>
                        <path id="path5654-1-4-1" d="M398.919,627.543C381.181,627.569 351.084,669.153 350.74,726.831L350.77,726.831C350.759,727.052 350.75,727.274 350.74,727.495C350.74,756.64 371.884,780.267 397.966,780.267C398.116,780.259 398.264,780.25 398.413,780.242L398.413,780.243C398.562,780.252 398.711,780.26 398.86,780.266C399.108,780.266 399.355,780.257 399.602,780.254C399.849,780.26 400.096,780.266 400.344,780.266C400.493,780.257 400.641,780.252 400.79,780.243L400.79,780.242C400.939,780.25 401.088,780.259 401.237,780.267C427.32,780.267 448.464,756.64 448.463,727.495C448.455,727.274 448.446,727.052 448.434,726.831L448.463,726.831C448.119,669.153 418.023,627.569 400.285,627.543C400.059,627.543 399.831,627.552 399.602,627.566C399.373,627.555 399.145,627.543 398.919,627.543Z" style="fill:rgb(255,102,147);fill-rule:nonzero;"/>
                        <g id="g2489-16-3-2-0" transform="matrix(-0.402717,0,0,0.402717,519.788,552.636)">
                            <path id="path2356-8-2-4-5" d="M296.709,296.845L297.119,375.104L296.709,296.845Z" style="fill:rgb(249,255,221);fill-rule:nonzero;stroke:black;stroke-width:1.16px;"/>
                            <rect id="rect2362-9-3-4-7" x="294.724" y="280.189" width="4.38" height="379.499" style="fill:rgb(249,255,221);"/>
                            <rect id="rect2364-7-0-2-6" x="297.119" y="366.412" width="38.08" height="4.38" style="fill:rgb(249,255,221);"/>
                            <rect id="rect2366-0-2-1-1" x="235.11" y="411.681" width="60.672" height="4.38" style="fill:rgb(249,255,221);"/>
                            <rect id="rect2368-1-8-6-1" x="263.543" y="343.168" width="32.239" height="4.38" style="fill:rgb(249,255,221);"/>
                            <rect id="rect2370-5-4-9-3" x="335.199" y="331.927" width="4.38" height="38.865" style="fill:rgb(249,255,221);"/>
                            <rect id="rect2372-7-3-8-1" x="263.543" y="319.169" width="4.38" height="28.379" style="fill:rgb(249,255,221);"/>
                            <ellipse id="ellipse2374-3-57-2-4" cx="266.026" cy="314.61" rx="8.76" ry="8.76" style="fill:rgb(249,255,221);"/>
                            <rect id="rect2376-5-2-0-7" x="235.11" y="380.009" width="4.38" height="36.053" style="fill:rgb(249,255,221);"/>
                            <ellipse id="ellipse2378-6-6-8-7" cx="296.281" cy="275.268" rx="8.76" ry="8.76" style="fill:rgb(249,255,221);"/>
                            <ellipse id="ellipse2380-6-7-2-0" cx="337.224" cy="327.127" rx="8.76" ry="8.76" style="fill:rgb(249,255,221);"/>
                            <ellipse id="ellipse2382-56-7-1-6" cx="237.3" cy="380.009" rx="8.76" ry="8.76" style="fill:rgb(249,255,221);"/>
                            <rect id="rect2364-7-1-61-2-7" x="299.104" y="498.188" width="38.08" height="4.38" style="fill:rgb(249,255,221);"/>
                            <rect id="rect2364-7-1-2-2-2-4" x="299.104" y="427.162" width="62.276" height="4.38" style="fill:rgb(249,255,221);"/>
                            <rect id="rect2364-7-1-1-9-7-4" x="249.044" y="477.114" width="45.68" height="4.38" style="fill:rgb(249,255,221);"/>
                            <rect id="rect2370-5-3-6-5-9" x="357" y="390.487" width="4.38" height="38.865" style="fill:rgb(249,255,221);"/>
                            <ellipse id="ellipse2382-56-1-0-6-1" cx="359.19" cy="390.487" rx="8.76" ry="8.76" style="fill:rgb(249,255,221);"/>
                            <rect id="rect2376-5-9-3-8-2" x="249.044" y="445.442" width="4.38" height="36.053" style="fill:rgb(249,255,221);"/>
                            <ellipse id="ellipse2382-56-6-3-5-4" cx="251.234" cy="445.442" rx="8.76" ry="8.76" style="fill:rgb(249,255,221);"/>
                            <rect id="rect2376-5-9-1-1-6-1" x="332.804" y="466.516" width="4.38" height="36.053" style="fill:rgb(249,255,221);"/>
                            <ellipse id="ellipse2382-56-6-9-7-6-3" cx="334.994" cy="466.516" rx="8.76" ry="8.76" style="fill:rgb(249,255,221);"/>
                        </g>
                    </g>
                </g>
            </g>
        </g>
    </g>
</svg>
