<?xml version="1.0" encoding="UTF-8" standalone="no"?>
<!DOCTYPE svg PUBLIC "-//W3C//DTD SVG 1.1//EN" "http://www.w3.org/Graphics/SVG/1.1/DTD/svg11.dtd">
<svg width="100%" height="100%" viewBox="0 0 1628 397" version="1.1" xmlns="http://www.w3.org/2000/svg" xmlns:xlink="http://www.w3.org/1999/xlink" xml:space="preserve" xmlns:serif="http://www.serif.com/" style="fill-rule:evenodd;clip-rule:evenodd;stroke-linejoin:round;stroke-miterlimit:2;">
    <g transform="matrix(1,0,0,1,-566.768,-2196.25)">
        <g id="path80-2" transform="matrix(0.0745934,0,0,0.0745934,492.965,2715.31)">
            <path d="M2069.5,-5141.5C2109.2,-5059.3 2154.5,-4977.1 2205.6,-4892C2197.1,-4954.4 2146,-5045.1 2069.5,-5141.5Z" style="fill-rule:nonzero;"/>
        </g>
        <g id="polygon82-0" transform="matrix(0.0745934,0,0,0.0745934,492.965,2715.31)">
            <path d="M2219.7,-3812L2151.7,-3851.7L2219.7,-3812Z" style="fill-rule:nonzero;"/>
        </g>
        <g id="path84-5" transform="matrix(0.0745934,0,0,0.0745934,492.965,2715.31)">
            <path d="M2219.7,-3812L2219.7,-3809.2L2236.7,-3797.9L2236.7,-3803.6L2219.7,-3812Z" style="fill-rule:nonzero;"/>
        </g>
        <g id="path86-9" transform="matrix(0.0745934,0,0,0.0745934,492.965,2715.31)">
            <path d="M2718.6,-5535.5C2792.3,-5439.1 2874.5,-5342.7 2959.6,-5246.4C3090,-5101.8 3231.7,-4960.1 3365,-4818.4C3404.7,-4778.7 3441.5,-4739 3478.4,-4699.3C3478.4,-4696.5 3481.2,-4696.5 3481.2,-4696.5C3605.9,-4560.4 3722.2,-4427.2 3812.9,-4294C3920.6,-4135.3 3994.3,-3976.5 4008.5,-3817.8C4008.5,-3817.8 4036.8,-3982.2 4034,-4220.3C4034,-4305.3 4028.3,-4398.9 4017,-4498.1C4014.2,-4535 4008.5,-4569 4002.8,-4605.8C3991.5,-4690.8 3974.5,-4775.9 3951.8,-4860.9L3951.8,-4863.7C3906.4,-5030.9 3841.2,-5201 3742,-5359.8C3696.6,-5436.3 3642.8,-5512.9 3577.6,-5583.7C2965.3,-6272.5 2514.6,-6439.8 2514.6,-6839.5C2514.6,-6839.5 2299.2,-6252.7 2625.2,-5682.9C2653.4,-5631.9 2684.6,-5583.7 2718.6,-5535.5Z" style="fill:rgb(124,221,205);fill-rule:nonzero;"/>
        </g>
        <g id="path88-2" transform="matrix(0.0745934,0,0,0.0745934,492.965,2715.31)">
            <path d="M4399.6,-4387.5C4391.1,-4313.8 4382.6,-4242.9 4371.3,-4180.6C4294.8,-3701.5 4121.8,-3494.6 3946.1,-3338.7C3906.4,-3627.8 3778.9,-3973.7 3489.7,-4364.9C3407.5,-4475.5 3311.1,-4591.7 3200.6,-4710.7L3200.6,-4713.5C3186.4,-4724.8 3175.1,-4739 3160.9,-4753.2C3087.2,-4829.7 3010.7,-4909.1 2925.6,-4988.5C2817.9,-5087.7 2707.3,-5186.9 2602.4,-5291.8C2474.8,-5419.4 2355.8,-5555.4 2256.6,-5708.5C2052.5,-6028.8 1953.3,-6420 2109.2,-6958.6C2106.4,-6955.8 1559.3,-6221.6 2063.8,-5152.9C2066.6,-5150.1 2069.5,-5141.6 2069.5,-5141.6C2069.5,-5141.6 2063.8,-5147.3 2063.8,-5150.1C1896.6,-5362.7 1624.4,-5603.7 1417.5,-5691.5C1652.8,-5169.9 1420.3,-4693.7 1255.9,-4424.4C1085.8,-4146.6 989.4,-3820.6 989.4,-3471.9C989.4,-3378.4 995.1,-3287.6 1009.2,-3199.8C1017.7,-3134.6 1031.9,-3072.2 1046.1,-3009.9C1077.3,-2896.5 1117,-2788.8 1165.2,-2686.7C1196.4,-2621.5 1230.4,-2556.3 1270.1,-2493.9C1278.6,-2482.6 1284.3,-2471.2 1292.8,-2459.9C1511.1,-2131.1 1831.4,-1875.9 2208.4,-1742.7C2347.3,-1694.5 2497.5,-1660.5 2650.6,-1646.3C2707.3,-1640.6 2764,-1637.8 2820.7,-1637.8C2919.9,-1637.8 3016.3,-1646.3 3109.8,-1660.5C2854.7,-1771.1 2633.6,-1944 2463.5,-2156.6C2693.1,-1997.9 2970.9,-1904.3 3268.6,-1904.3C3614.4,-1904.3 3931.9,-2029 4178.5,-2236C4178.5,-2238.8 4181.3,-2241.7 4184.2,-2244.5C3971.6,-2122.6 3722.1,-2057.4 3455.7,-2068.7C2758.4,-2102.7 2199.9,-2672.5 2180.1,-3369.8C2174.4,-3517.2 2197.1,-3661.8 2236.8,-3797.8L2219.8,-3809.1L2140.4,-3851.6C2114.9,-3868.6 2114.9,-3905.5 2140.4,-3919.6L2336,-4047.2L2710.2,-4288.2C2735.7,-4305.2 2772.6,-4285.4 2769.7,-4251.3L2735.7,-3576.6C2735.7,-3545.4 2701.7,-3528.4 2676.2,-3542.6L2579.8,-3599.3C2554.3,-3508.6 2540.1,-3415 2540.1,-3318.7C2540.1,-2737.6 3010.7,-2267 3591.8,-2267C4062.4,-2267 4459.2,-2573.1 4592.5,-2998.4C4603.8,-3032.4 4657.7,-3182.7 4671.9,-3400.9C4688.8,-3664.6 4646.3,-4024.6 4399.6,-4387.5L4399.6,-4387.5Z" style="fill:rgb(255,8,80);fill-rule:nonzero;"/>
        </g>
        <g id="g49" transform="matrix(5.28061,0,0,5.28061,365.913,2195.54)">
            <path id="path31" d="M122.6,28.7L129.2,28.7L140.7,60.3L133.2,60.3L130.8,53.2L121,53.2L118.6,60.3L111,60.3L122.6,28.7ZM129.6,48.2L125.9,37L122.1,48.2L129.6,48.2Z" style="fill-rule:nonzero;"/>
            <path id="path33" d="M143.8,60.3L143.8,28.7L158,28.7C159.5,28.7 160.9,29 162.1,29.6C163.4,30.2 164.5,31 165.4,32C166.3,33 167,34.2 167.6,35.4C168.1,36.7 168.4,38 168.4,39.3C168.4,40.3 168.3,41.2 168,42.1C167.8,43 167.4,43.9 167,44.7C166.6,45.5 166,46.2 165.4,46.9C164.8,47.5 164,48.1 163.2,48.5L170.1,60.2L161.9,60.2L155.8,50L151,50L151,60.2L143.8,60.2L143.8,60.3ZM151.1,43.8L157.8,43.8C158.7,43.8 159.4,43.4 160,42.6C160.6,41.8 160.9,40.7 160.9,39.5C160.9,38.2 160.5,37.2 159.8,36.4C159.1,35.6 158.3,35.2 157.5,35.2L151,35.2L151,43.8L151.1,43.8Z" style="fill-rule:nonzero;"/>
            <path id="path35" d="M173.6,60.3L173.6,28.7L180.9,28.7L180.9,42.3L192.5,28.7L200.7,28.7L188.9,42.8L201.5,60.3L193.2,60.3L184.3,47.6L181,51L181,60.3L173.6,60.3Z" style="fill-rule:nonzero;"/>
            <path id="path37" d="M212.4,28.7L219,28.7L230.5,60.3L223,60.3L220.6,53.2L210.8,53.2L208.4,60.3L200.9,60.3L212.4,28.7ZM219.4,48.2L215.7,37L211.9,48.2L219.4,48.2Z" style="fill-rule:nonzero;"/>
            <path id="path39" d="M235.5,28.7L242.9,51.1L250.2,28.7L257.9,28.7L245.9,60.3L239.8,60.3L227.7,28.7L235.5,28.7Z" style="fill-rule:nonzero;"/>
            <rect id="path41" x="260.9" y="28.7" width="7.3" height="31.6" style="fill-rule:nonzero;"/>
            <path id="path43" d="M274.3,60.3L274.3,28.7L286.1,28.7C288.7,28.7 291,29.1 293,29.9C295,30.7 296.6,31.9 297.9,33.3C299.2,34.7 300.2,36.4 300.9,38.3C301.6,40.2 301.9,42.3 301.9,44.4C301.9,46.8 301.5,49 300.8,50.9C300.1,52.8 299,54.5 297.6,55.9C296.2,57.3 294.6,58.3 292.6,59.1C290.6,59.9 288.5,60.2 286.1,60.2L274.3,60.2L274.3,60.3ZM294.4,44.5C294.4,43.1 294.2,41.8 293.8,40.7C293.4,39.6 292.9,38.6 292.2,37.7C291.5,36.9 290.6,36.2 289.6,35.8C288.6,35.4 287.4,35.1 286.1,35.1L281.6,35.1L281.6,53.9L286.1,53.9C287.4,53.9 288.6,53.7 289.7,53.2C290.7,52.7 291.6,52.1 292.3,51.2C293,50.4 293.5,49.4 293.9,48.2C294.2,47.1 294.4,45.9 294.4,44.5Z" style="fill-rule:nonzero;"/>
            <rect id="path45" x="306.1" y="28.7" width="7.3" height="31.6" style="fill-rule:nonzero;"/>
            <path id="path47" d="M328.1,28.7L334.7,28.7L346.2,60.3L338.7,60.3L336.3,53.2L326.5,53.2L324.1,60.3L316.6,60.3L328.1,28.7ZM335.1,48.2L331.4,37L327.6,48.2L335.1,48.2Z" style="fill-rule:nonzero;"/>
        </g>
    </g>
</svg>
