<?xml version="1.0" encoding="UTF-8" standalone="no"?>
<!DOCTYPE svg PUBLIC "-//W3C//DTD SVG 1.1//EN" "http://www.w3.org/Graphics/SVG/1.1/DTD/svg11.dtd">
<svg width="100%" height="100%" viewBox="0 0 617 891" version="1.1" xmlns="http://www.w3.org/2000/svg" xmlns:xlink="http://www.w3.org/1999/xlink" xml:space="preserve" xmlns:serif="http://www.serif.com/" style="fill-rule:evenodd;clip-rule:evenodd;stroke-linejoin:round;stroke-miterlimit:2;">
    <g transform="matrix(1,0,0,1,-1299.88,-2480.31)">
        <g transform="matrix(1,0,0,1,-64.7503,0)">
            <g id="path86" transform="matrix(0.0903319,0,0,0.0903319,924.226,2931.74)">
                <path d="M8084.3,-2364.1C8220.4,-2179.9 8370.6,-2001.3 8529.3,-1825.5C8770.2,-1556.2 9031,-1292.6 9277.6,-1034.6C9348.5,-958.1 9419.3,-884.4 9490.2,-810.7C9490.2,-807.9 9493,-807.9 9493,-805C9725.4,-555.6 9938,-306.1 10108.1,-62.3C10309.4,232.5 10445.4,527.3 10470.9,819.3C10470.9,819.3 10521.9,518.8 10516.3,76.6C10516.3,-82.1 10507.8,-255 10488,-439.3C10479.5,-504.5 10471,-572.5 10462.5,-640.6C10439.8,-793.7 10408.6,-952.4 10366.1,-1114C10363.3,-1114 10363.3,-1114 10363.3,-1116.8C10281.1,-1425.8 10159.2,-1740.4 9977.8,-2035.2C9889.9,-2179.8 9790.7,-2315.8 9674.5,-2449.1C8537.8,-3727.5 7704.5,-4036.5 7704.5,-4773.5C7704.5,-4773.5 7302,-3690.7 7905.8,-2630.5C7956.7,-2542.7 8016.2,-2452 8084.3,-2364.1Z" style="fill:rgb(124,221,205);fill-rule:nonzero;"/>
            </g>
            <g id="path88" transform="matrix(0.0903319,0,0,0.0903319,924.226,2931.74)">
                <path d="M11193.8,-235.3C11179.6,-96.4 11162.6,31.2 11142.8,150.2C10998.2,1034.6 10677.9,1420.1 10357.6,1706.4C10281.1,1173.5 10043,535.7 9507.2,-192.8C9354.1,-399.7 9178.4,-612.3 8974.3,-833.4C8974.3,-833.4 8974.3,-836.2 8971.5,-836.2C8948.8,-861.7 8923.3,-887.2 8900.6,-912.7C8764.5,-1054.4 8620,-1199 8461.2,-1346.4C8265.6,-1530.6 8061.5,-1714.9 7868.8,-1907.7C7630.7,-2145.8 7406.8,-2398.1 7228.2,-2678.7C6845.5,-3274 6661.3,-3999.6 6950.4,-4997.4C6950.4,-4994.6 5935.6,-3631.1 6868.2,-1649.7C6871,-1644 6879.5,-1632.7 6879.5,-1632.7C6879.5,-1632.7 6871,-1641.2 6865.3,-1646.9C6559.2,-2038.1 6051.8,-2488.8 5669.1,-2647.5C6105.6,-1683.7 5674.8,-799.3 5371.5,-303.3C5056.9,209.8 4875.4,816.4 4875.4,1462.7C4875.4,1635.6 4889.6,1802.9 4912.3,1967.3C4932.1,2086.4 4954.8,2202.6 4986,2318.8C5039.9,2525.7 5110.7,2727 5201.4,2916.9C5260.9,3038.8 5326.1,3157.8 5397,3271.2C5411.2,3293.9 5425.3,3313.7 5439.5,3336.4C5842,3945.8 6437.3,4416.4 7137.4,4665.8C7395.3,4756.5 7667.5,4818.9 7953.8,4844.4C8058.7,4855.7 8163.6,4858.6 8271.3,4858.6C8452.7,4858.6 8631.3,4844.4 8804.2,4818.9C8333.7,4612 7925.5,4294.5 7610.8,3897.7C8033.2,4192.5 8546.2,4368.2 9101.8,4368.2C9742.4,4368.2 10329.2,4135.8 10782.7,3750.3C10788.4,3744.6 10791.2,3741.8 10796.9,3736.1C10400.1,3962.9 9938,4084.8 9444.8,4059.2C8157.9,3999.7 7120.4,2942.4 7083.6,1652.6C7075.1,1377.6 7111.9,1108.4 7188.5,858.9L7154.5,839.1L7012.8,756.9C6964.6,728.6 6961.8,660.5 7007.1,632.2L7369.9,396.9L8064.4,-51C8112.6,-82.2 8180.6,-45.3 8177.8,14.2L8115.4,1269.9C8112.6,1323.8 8053,1357.8 8004.9,1329.4L7823.5,1227.4C7778.1,1391.8 7752.6,1564.7 7752.6,1746.1C7752.6,2820.4 8625.7,3693.5 9700,3693.5C10567.4,3693.5 11304.4,3123.7 11553.8,2338.6C11573.6,2276.2 11672.9,1995.6 11698.4,1593.1C11729.5,1105.4 11650.2,439.3 11193.8,-235.3Z" style="fill:rgb(255,8,80);fill-rule:nonzero;"/>
            </g>
        </g>
    </g>
</svg>
