<?xml version="1.0" encoding="UTF-8" standalone="no"?>
<!DOCTYPE svg PUBLIC "-//W3C//DTD SVG 1.1//EN" "http://www.w3.org/Graphics/SVG/1.1/DTD/svg11.dtd">
<svg width="100%" height="100%" viewBox="0 0 608 647" version="1.1" xmlns="http://www.w3.org/2000/svg" xmlns:xlink="http://www.w3.org/1999/xlink" xml:space="preserve" xmlns:serif="http://www.serif.com/" style="fill-rule:evenodd;clip-rule:evenodd;stroke-linejoin:round;stroke-miterlimit:2;">
    <g transform="matrix(1,0,0,1,-1670.98,-1458.99)">
        <g transform="matrix(0.707107,-0.707107,0.707107,0.707107,-783.333,1561.62)">
            <path d="M2217.14,2092.28C2217.14,2065.25 2195.19,2043.3 2168.16,2043.3L1808.95,2043.3C1781.92,2043.3 1759.97,2065.25 1759.97,2092.28C1759.97,2119.32 1781.92,2141.26 1808.95,2141.26L2168.16,2141.26C2195.19,2141.26 2217.14,2119.32 2217.14,2092.28Z" style="fill:rgb(118,8,255);"/>
        </g>
        <g transform="matrix(0.707107,0.707107,-0.707107,0.707107,1920.3,-1250.62)">
            <path d="M2217.14,2092.28C2217.14,2065.25 2195.19,2043.3 2168.16,2043.3L1808.95,2043.3C1781.92,2043.3 1759.97,2065.25 1759.97,2092.28C1759.97,2119.32 1781.92,2141.26 1808.95,2141.26L2168.16,2141.26C2195.19,2141.26 2217.14,2119.32 2217.14,2092.28Z" style="fill:rgb(118,8,255);"/>
        </g>
        <g transform="matrix(0.707107,-0.707107,0.707107,0.707107,-783.333,1856.56)">
            <path d="M2217.14,2092.28C2217.14,2065.25 2195.19,2043.3 2168.16,2043.3L1808.95,2043.3C1781.92,2043.3 1759.97,2065.25 1759.97,2092.28C1759.97,2119.32 1781.92,2141.26 1808.95,2141.26L2168.16,2141.26C2195.19,2141.26 2217.14,2119.32 2217.14,2092.28Z" style="fill:rgb(249,11,79);"/>
        </g>
        <g transform="matrix(0.707107,0.707107,-0.707107,0.707107,1920.3,-955.68)">
            <path d="M2217.14,2092.28C2217.14,2065.25 2195.19,2043.3 2168.16,2043.3L1808.95,2043.3C1781.92,2043.3 1759.97,2065.25 1759.97,2092.28C1759.97,2119.32 1781.92,2141.26 1808.95,2141.26L2168.16,2141.26C2195.19,2141.26 2217.14,2119.32 2217.14,2092.28Z" style="fill:rgb(249,11,79);"/>
        </g>
    </g>
</svg>
